<svg xmlns="http://www.w3.org/2000/svg" xmlns:xlink="http://www.w3.org/1999/xlink" width="90" height="90" viewBox="0 0 90 90">
  <defs>
    <clipPath id="clip-path">
      <circle id="Ellipse_40" data-name="Ellipse 40" cx="45" cy="45" r="45" transform="translate(-1006 1155)" fill="#fff"/>
    </clipPath>
  </defs>
  <g id="Mobile_Application_" data-name="Mobile Application " transform="translate(1006 -1155)" clip-path="url(#clip-path)">
    <g id="mobile_application" data-name="mobile application" transform="translate(-987.428 1173.45)">
      <path id="Path_392" data-name="Path 392" d="M28.7,22.6a4.249,4.249,0,0,0-3.5.1,4.768,4.768,0,0,1,3.1.7,4.064,4.064,0,0,1,1.6,2.3,3.532,3.532,0,0,1-2.4,4.2,3.631,3.631,0,0,1-4.4-2.1,4.233,4.233,0,0,1,2.1-5.2,3.985,3.985,0,0,0-3,1.9,5.032,5.032,0,0,0-.6,3.8A4.707,4.707,0,0,0,24,31.4a5.084,5.084,0,0,0,4,.4,5.334,5.334,0,0,0,3.1-2.6,5.051,5.051,0,0,0,.2-4,4.447,4.447,0,0,0-2.6-2.6Z"/>
      <path id="Path_393" data-name="Path 393" d="M37,22.2a.752.752,0,0,0-.7-.5l-1.9.1A8.622,8.622,0,0,0,33,20l.5-1.8a.951.951,0,0,0-.4-1c-.2-.1-2.4-1.3-2.3-1.2a.913.913,0,0,0-1.1.2c-.1.1-1.3,1.4-1.2,1.3a7.845,7.845,0,0,0-2.2-.2l-.9-1.5a.841.841,0,0,0-1.1-.4c-.2.1-2.6.8-2.4.7a.993.993,0,0,0-.7,1c0,.2.1,1.9.1,1.8a7.312,7.312,0,0,0-1.6,1.4c-.1,0-1.8-.5-1.7-.4a1,1,0,0,0-1.1.5c-.1.1-1.3,2.4-1.2,2.3a1.063,1.063,0,0,0,.2,1.2l1.4,1.2a16.352,16.352,0,0,0-.2,2.2l-1.6.7a.951.951,0,0,0-.4,1l.8,2.4a.838.838,0,0,0,.8.6l1.9-.2a6.9,6.9,0,0,0,1.6,1.8l-.4,1.9a.61.61,0,0,0,.3.7l2.3,1.1a.616.616,0,0,0,.7-.1l1.3-1.6a8.173,8.173,0,0,0,2.7.1c.1.1,1.2,1.9,1.2,1.8a.367.367,0,0,0,.3.1,20.67,20.67,0,0,0,2.4-.9.1.1,0,0,0,.1-.1l-.3-2.3v2.2l-2.2.6-1-1.9c-.1-.2-.2-.2-.3-.2a9.246,9.246,0,0,1-2.9-.4.44.44,0,0,0-.5.1l-1.3,1.4-1.4-.8.5-1.8a.663.663,0,0,0-.2-.7,7.231,7.231,0,0,1-1.7-2.2.842.842,0,0,0-.7-.4l-1.7.1L17,29.2l1.5-.8a.735.735,0,0,0,.4-.8,6.262,6.262,0,0,1,.3-2.7,1.015,1.015,0,0,0-.3-1c-.1-.1-1.3-1.2-1.2-1.1l.5-.9,1.5.4a.959.959,0,0,0,1-.3,6.845,6.845,0,0,1,2.1-1.7,1.05,1.05,0,0,0,.5-.9l-.1-1.6.9-.3a11.472,11.472,0,0,1,.8,1.4,1.05,1.05,0,0,0,.9.5,8.223,8.223,0,0,1,2.7.2.806.806,0,0,0,.9-.3L30.5,18l1,.5c0,.1-.4,1.7-.4,1.6a.67.67,0,0,0,.3.8A9.1,9.1,0,0,1,33.2,23a.842.842,0,0,0,.7.4l1.8-.2.5,1.4a18.447,18.447,0,0,1-1.6,1,.55.55,0,0,0-.3.5,7.248,7.248,0,0,1-.2,2.9c0,.2,0,.4.2.5l1.6,1.3L35,32.6c-.1,0-2.2-.5-2.1-.5-.1,0-.1,0-.2.1a8.827,8.827,0,0,1-2.2,2.1,6.9,6.9,0,0,0,2.4-1.8l2.2.7a.367.367,0,0,0,.3-.1c.3-.5,1.4-2.3,1.3-2.2.1-.1.1-.3-.1-.5-.1-.1-1.6-1.5-1.5-1.4a10.679,10.679,0,0,0,.3-2.5l1.8-1a.517.517,0,0,0,.3-.7c0-.7-.6-2.7-.5-2.6Z"/>
      <path id="Path_394" data-name="Path 394" d="M39.3,1.9h-12c-3.3,0-10.2,0-13.2.1a8.874,8.874,0,0,0-1.5.2A3.835,3.835,0,0,0,9.7,5.5a5.578,5.578,0,0,0,0,1.3c0,6.4,0,12.8.1,19.3.3,18.2.3,20.4.3,21.7a3.788,3.788,0,0,0,3.6,3.4c1.7,0,5.4-.1,12-.3l-9.6-.3-2.4-.1A2.843,2.843,0,0,1,11,47.7V43.5a63.374,63.374,0,0,0,7.5.7c2.7.2,5.3.2,8,.2s5.3-.1,8-.2a59.832,59.832,0,0,0,7.4-.7v3.2a4.659,4.659,0,0,1-.3,2.1A3.168,3.168,0,0,1,40,50.2a3.6,3.6,0,0,1-1.1.2H37.7c-3.3.1-6.2.1-12,.3,5.8.2,8.6.2,12,.3h1.2a2.953,2.953,0,0,0,1.3-.2,3.567,3.567,0,0,0,2.5-2.9,6.151,6.151,0,0,0,.1-1.3l.3-19.3c.1-6.4.1-12.8.1-19.3V5.5a4.077,4.077,0,0,0-1.3-2.7,4.282,4.282,0,0,0-2.6-.9ZM11.5,5.8a2.247,2.247,0,0,1,1.6-1.9,2.483,2.483,0,0,1,.9-.1H39.2A2.38,2.38,0,0,1,41.5,6v4.7c-2.4-.3-4.7-.5-7.1-.7-2.7-.2-5.3-.2-8-.2s-5.3.1-8,.2a56.885,56.885,0,0,0-7.1.7V6.9a2.8,2.8,0,0,0,.2-1.1Zm23,36.9c-2.7-.2-5.3-.2-8-.2s-5.3.1-8,.2a63.373,63.373,0,0,0-7.5.7l.3-17.3c.1-5.1.1-10.1.1-15.2,2.4.3,4.7.5,7.1.7,2.7.2,5.3.2,8,.2s5.3-.1,8-.2a56.885,56.885,0,0,0,7.1-.7c0,5.5,0,11.1.1,16.6l.2,15.9c-2.5-.3-5-.5-7.4-.7Z"/>
      <path id="Path_395" data-name="Path 395" d="M27.9,7.3a5.013,5.013,0,0,0,1.4-.8,5.013,5.013,0,0,0-1.4-.8,4.468,4.468,0,0,0-2.8,0,5.013,5.013,0,0,0-1.4.8,5.013,5.013,0,0,0,1.4.8A5.317,5.317,0,0,0,27.9,7.3Z"/>
      <path id="Path_396" data-name="Path 396" d="M25.1,46.4a5.013,5.013,0,0,0-1.4.8,5.013,5.013,0,0,0,1.4.8,4.465,4.465,0,0,0,2.8,0,5.013,5.013,0,0,0,1.4-.8,5.013,5.013,0,0,0-1.4-.8A4.465,4.465,0,0,0,25.1,46.4Z"/>
    </g>
  </g>
</svg>
