<svg xmlns="http://www.w3.org/2000/svg" xmlns:xlink="http://www.w3.org/1999/xlink" width="90" height="90" viewBox="0 0 90 90">
  <defs>
    <clipPath id="clip-path">
      <circle id="Ellipse_42" data-name="Ellipse 42" cx="45" cy="45" r="45" transform="translate(-529 1155)" fill="#fff"/>
    </clipPath>
  </defs>
  <g id="Pay_and_Conditions" data-name="Pay and Conditions" transform="translate(529 -1155)" clip-path="url(#clip-path)">
    <g id="_x32_1" transform="translate(-511 1172.644)">
      <path id="Path_365" data-name="Path 365" d="M52,34.3V25.7a9.282,9.282,0,0,0-.3-2.4,5.9,5.9,0,0,0-2.3-3.1,8.9,8.9,0,0,0-2.2-1.1,2.4,2.4,0,0,0-.8-.2,2.218,2.218,0,0,0,.7.4A11.353,11.353,0,0,1,49,20.5a5.68,5.68,0,0,1,1.9,2.9c.1.4.1.8.2,1.2a2.181,2.181,0,0,0-.4-.5,4.19,4.19,0,0,0-2.1-1.2c-.1-.4-.1-.7-.2-1.1A4.882,4.882,0,0,0,46.7,19a5.788,5.788,0,0,0-3-.9h-.2c-.5-.9-1.6-2.8-3.3-5.4-.6-.9-1.2-1.9-1.9-2.9a17.945,17.945,0,0,0-2.5-3.3,6.552,6.552,0,0,0-4.3-2.1,9.775,9.775,0,0,0-5,1c-1.6.7-2.9,1.5-4.3,2.2-3.9,2.2-7.4,4.3-10.2,6.2S7.3,17,6.6,17.6a6.373,6.373,0,0,1-.7.2,3.572,3.572,0,0,0-2.2,2,13.425,13.425,0,0,0-.4,3.5c-.2,9-.2,8-.3,15.7a14.168,14.168,0,0,0,.2,2.8,4.929,4.929,0,0,0,1.4,2.4v.7a7.114,7.114,0,0,0,.7,2.3,4.9,4.9,0,0,0,3.2,2.2,25.363,25.363,0,0,0,5,.6q3.6.15,8.1.3h.1c5.6.2,12.1.3,19,.2h1.4c1.4,0,2.8-.1,4.1,0a8.578,8.578,0,0,0,2.2-.2,3.9,3.9,0,0,0,2-1.3,9.17,9.17,0,0,0,1.4-4,24.845,24.845,0,0,0,.2-3.8C51.9,38.8,52,36.5,52,34.3Zm-1.3,6.9v1.3a4.04,4.04,0,0,0-2.6-1.8c0-.7.1-1.4.1-2,.4.2.8.4,1.3.7s.9.6,1.2.8Zm-.5-7.9a5.964,5.964,0,0,0-1.8-.7c0-1.2.1-2.4.1-3.6a6.47,6.47,0,0,1,.9.8A7.116,7.116,0,0,0,50.9,31c0,.9-.1,1.8-.1,2.8C50.6,33.6,50.4,33.5,50.2,33.3Zm-1.9.5c.6.4,1.8,1.2,2.4,1.5,0,1-.1,2.1-.1,3.2-.2-.1-.3-.3-.5-.4a4.125,4.125,0,0,0-1.9-.6h-.1C48.2,36.3,48.3,35,48.3,33.8Zm1.3-8.6L51,26.6c-.1,2-.1,1.5-.1,2.7a3.394,3.394,0,0,0-.6-.6,4.329,4.329,0,0,0-1.8-.9h-.1c0-1,.1-1.9.1-2.8v-.9l1.1,1.1ZM39.3,13.4c1.6,2.2,2.9,3.9,3.6,4.7a15.029,15.029,0,0,0-2-.2c-3.6-.3-6.9-.2-10-.3H26.5c1.2-.6,3.1-1.8,5.3-3.1a41.274,41.274,0,0,0,5.5-3.9C38,11.6,38.7,12.6,39.3,13.4Zm-35,6.8a3.512,3.512,0,0,1,1.8-1.8,12.842,12.842,0,0,1,3.7-.7c.9,0,1.4,0,1.4-.1,0,0-.5-.1-1.4-.2a18.919,18.919,0,0,0-2.4,0c1-.5,2.7-1.5,5-2.8,7.9-4.5,5.5-3.1,10.4-5.9C24.2,8,25.5,7.2,27,6.5a9.513,9.513,0,0,1,4.3-.9,5.554,5.554,0,0,1,3.5,1.7,17.085,17.085,0,0,1,2.1,2.6A33.338,33.338,0,0,0,31,13.1a34.447,34.447,0,0,0-5.7,4.3H16.4a43.933,43.933,0,0,0-5.3.1s.5.1,1.4.2,2.2.2,3.9.3c3.4.1,8.3.3,14.4.5,3.1.1,6.4.1,9.9.4l2.7.3a5.65,5.65,0,0,1,2.4.7A3.371,3.371,0,0,1,47,22a14.117,14.117,0,0,1,.2,4.6c-1.7-.3-10.8-.6-21.9-.6-10.1,0-18.6.2-21.2.5V23.2a9.9,9.9,0,0,1,.2-3ZM4.1,39V27.2c2.7.3,11.2.5,21.2.5,11,0,20.2-.3,21.8-.6-.1,1.5-.1.9-.4,10.5-.1,2.2.1,4.5-1.1,6A3.756,3.756,0,0,1,43,44.8a15.666,15.666,0,0,1-3.2.2c-2.3,0-4.6-.2-6.9-.2-8.4-.1-4.1-.1-19.3-.3a36.315,36.315,0,0,1-5.8-.3,5.291,5.291,0,0,1-2.3-.9,3.47,3.47,0,0,1-1.2-1.9A16.592,16.592,0,0,1,4.1,39Zm26.3,8.9a4.234,4.234,0,0,0,.4,1.2H26.9a3.815,3.815,0,0,0-.3-2.9c1.2,0,2.3,0,3.5.1a3.869,3.869,0,0,0,.3,1.6Zm-9.6.3c.1.3.1.5.2.8-1.5,0-3,0-4.4-.1a4.483,4.483,0,0,0,.1-1.2,3.994,3.994,0,0,0-.4-1.8c1.4,0,2.8.1,4.2.1-.3.3,0,1.2.3,2.2Zm1.4-.3a2.983,2.983,0,0,0-1.3-1.8c1.4,0,2.8.1,4.3.1.1.4.2.8.3,1.3a15.6,15.6,0,0,0,.5,1.6H22.3a4.869,4.869,0,0,0-.1-1.2ZM5.8,46.8a4.754,4.754,0,0,1-.9-2,4.331,4.331,0,0,0-.1-.5l.1.1a9.311,9.311,0,0,0,4.9,1.4,7.084,7.084,0,0,0,.1,1.4,5.3,5.3,0,0,0,.4,1.6c-.5-.1-1-.1-1.5-.2A5.143,5.143,0,0,1,5.8,46.8Zm5.2,2a3.445,3.445,0,0,0,.3-1.9c-.1-.4-.2-.8-.3-1.1.8,0,4.5.1,4.6.1a4.7,4.7,0,0,0-.3,1.9c0,.4.1.8.1,1.2H13.5C12.7,48.9,11.8,48.9,11,48.8Zm20.8.3a3.537,3.537,0,0,0-.8-2.9h3.8a11.547,11.547,0,0,0,.2,1.6l.3,1.2c-1.1.1-2.3.1-3.5.1Zm4.7,0a4.548,4.548,0,0,0-.5-2.8c1,0,2,.1,3,.1a17.717,17.717,0,0,0,.6,1.7,3.552,3.552,0,0,0,.4.9C38.8,49.1,37.6,49.1,36.5,49.1Zm5.6-.1h-.9a6.22,6.22,0,0,0-.9-2.6,28.252,28.252,0,0,0,2.9-.2c.3.7,1,2.1,1.4,2.8Zm6-.1a5.31,5.31,0,0,1-1.8.1h-.7a5.286,5.286,0,0,0-1.1-3c.2-.1.5-.2.7-.3a8.342,8.342,0,0,0,1.2-.8c.3.4.9.8,1.4,1.4.7.7,1.2,1.4,1.6,1.7a2.223,2.223,0,0,1-1.3.9Zm1.8-1.8a4.575,4.575,0,0,0-2.9-3,5.048,5.048,0,0,0,.9-2.3,9.016,9.016,0,0,0,1,.9,10.954,10.954,0,0,0,1.6,1.2,2.769,2.769,0,0,1-.1.9,5.932,5.932,0,0,1-.5,2.3Z"/>
      <ellipse id="Ellipse_31" data-name="Ellipse 31" cx="10.2" cy="0.7" rx="10.2" ry="0.7" transform="translate(10.2 38.1)"/>
      <path id="Path_366" data-name="Path 366" d="M13.9,33.7c1.9,0,3.5-.3,3.5-.7s-1.6-.7-3.5-.7-3.5.3-3.5.7S12,33.7,13.9,33.7Z"/>
      <path id="Path_367" data-name="Path 367" d="M22.2,33.7c1.9,0,3.5-.3,3.5-.7s-1.6-.7-3.5-.7-3.5.3-3.5.7S20.3,33.7,22.2,33.7Z"/>
      <path id="Path_368" data-name="Path 368" d="M30.5,33.7c1.9,0,3.5-.3,3.5-.7s-1.6-.7-3.5-.7-3.5.3-3.5.7S28.6,33.7,30.5,33.7Z"/>
      <path id="Path_369" data-name="Path 369" d="M38.8,33.7c1.9,0,3.5-.3,3.5-.7s-1.6-.7-3.5-.7-3.5.3-3.5.7S36.9,33.7,38.8,33.7Z"/>
    </g>
  </g>
</svg>
