<svg xmlns="http://www.w3.org/2000/svg" xmlns:xlink="http://www.w3.org/1999/xlink" width="90" height="90" viewBox="0 0 90 90">
  <defs>
    <clipPath id="clip-path">
      <circle id="Ellipse_39" data-name="Ellipse 39" cx="45" cy="45" r="45" transform="translate(-884 1155)" fill="#fff"/>
    </clipPath>
  </defs>
  <g id="Technology" transform="translate(884 -1155)" clip-path="url(#clip-path)">
    <g id="_x32_37" transform="translate(-864.603 1174.438)">
      <path id="Path_372" data-name="Path 372" d="M32.188,44.027a14.473,14.473,0,0,0,.805-4.062,23.21,23.21,0,0,1,.55-4.122A9.192,9.192,0,0,1,35.6,32.155a25.132,25.132,0,0,0,2.943-3.9,10.394,10.394,0,0,0,1.151-5.138,15.513,15.513,0,0,0-4.14-9.906,13.227,13.227,0,0,0-2.139-1.841c-.409-.233-.8-.514-1.223-.7L30.938,10.1a15.929,15.929,0,0,0-5.266-1.039,14.741,14.741,0,0,0-5.118.748,14.5,14.5,0,0,0-4.407,2.283,13.925,13.925,0,0,0-3.221,3.463,14.077,14.077,0,0,0-1.772,4.091,11.344,11.344,0,0,0,.927,7.829,23.157,23.157,0,0,0,3.713,5.259,9.169,9.169,0,0,1,2.185,4.018,25.505,25.505,0,0,1,.6,2.929A3.227,3.227,0,0,0,18.8,40.72a2.343,2.343,0,0,0,.062-.894,13.359,13.359,0,0,0,6.544,1.617,14.446,14.446,0,0,0,6.372-1.126c-.04.518-.09,1.025-.168,1.511A5.714,5.714,0,0,0,29.394,42c-1.176.221-2.192.4-2.248.8-.064.381,1.073.867,2.5.605a3.766,3.766,0,0,0,1.807-.81,8.888,8.888,0,0,1-.3,1.043c-.057.151-.127.29-.191.434-.4.183-.894.465-1.381.7a5.329,5.329,0,0,1-1.3.394c-.354.068-.65.076-.76.246-.106.153.052.51.573.746a2.259,2.259,0,0,0,1.092.157,7.055,7.055,0,0,1-5.686.743,7.18,7.18,0,0,1-2.236-1,4.583,4.583,0,0,1-1.354-1.511,8.912,8.912,0,0,1-.884-2.789A3.432,3.432,0,0,0,18.8,40.72a2.724,2.724,0,0,0-.051,1.066,7.853,7.853,0,0,0,.677,3.013,5.058,5.058,0,0,0,1.437,1.8,7.064,7.064,0,0,0,1.567.881,2.052,2.052,0,0,0,.16,1.012,3.306,3.306,0,0,0,3.038,1.949A3.683,3.683,0,0,0,28.7,48.644a2.224,2.224,0,0,0,.345-1.1,5.645,5.645,0,0,0,.728-.4,6.319,6.319,0,0,0,2.413-3.113ZM22.64,39.838c.129-1.117.241-2.716.268-4.292a25.979,25.979,0,0,0-.184-3.885L22.5,29.424a5.032,5.032,0,0,1,0-.669c.746-.354,1.138-.6,1.582-.844a6.734,6.734,0,0,0,.759-.479A11.743,11.743,0,0,1,27.3,25.68a2.577,2.577,0,0,1,2.331.26,1.607,1.607,0,0,1,.328.335,1.92,1.92,0,0,0-.854-.145,2,2,0,0,0-1.631.776,2.082,2.082,0,0,0-.416,1.84,2.056,2.056,0,0,0,1.351,1.444,1.96,1.96,0,0,0,1.261-.08c-.13.485-.278.96-.443,1.412-.235.646-.525,1.293-.707,1.944a11.17,11.17,0,0,0-.323,4.842,13.816,13.816,0,0,0,.352,1.661,36.7,36.7,0,0,1-5.91-.131ZM21.319,27.725a3.923,3.923,0,0,1-2.591.2,1.319,1.319,0,0,1-.44-.232,1.548,1.548,0,0,1-.324-.393,2.106,2.106,0,0,1,1.11-2.719,1.447,1.447,0,0,1,1.759.423,2.909,2.909,0,0,1,.6,2.028c0,.212-.012.429-.024.649-.031.013-.062.03-.093.042Zm7.461,1.2a.775.775,0,0,1-.481-.521.81.81,0,0,1,.158-.722.759.759,0,0,1,.659-.334.707.707,0,0,1,.649.209,1.186,1.186,0,0,1,.191.719C29.608,28.714,29.033,29.037,28.78,28.928Zm.089,11.022c-.034-.414-.084-.978-.118-1.693a11.751,11.751,0,0,1,.633-4.512c.2-.583.5-1.169.783-1.854a13.049,13.049,0,0,0,.871-2.808,2.985,2.985,0,0,0-.566-4.261,3.941,3.941,0,0,0-3.659-.476A11.836,11.836,0,0,0,24,26.278a12.355,12.355,0,0,1-1.323.786l-.058.031c0-.011,0-.021,0-.032A4.1,4.1,0,0,0,21.8,24.2a2.845,2.845,0,0,0-1.435-.959,2.8,2.8,0,0,0-1.785.124,3.545,3.545,0,0,0-2.119,2.708,2.836,2.836,0,0,0,.927,2.675,2.691,2.691,0,0,0,.9.5,5.1,5.1,0,0,0,3.1-.061c.006.114.007.226.02.341l.316,2.22a29.552,29.552,0,0,1,.391,3.808c.04,1.131.075,2.105.1,2.9.015.529.031.971.049,1.338a25.322,25.322,0,0,0-3.41-.323,13.826,13.826,0,0,0-1.008-4.994A8.967,8.967,0,0,0,16.4,32.217a23.4,23.4,0,0,1-3.405-5.167,10.364,10.364,0,0,1-.694-7.114,13.024,13.024,0,0,1,1.673-3.691,12.767,12.767,0,0,1,2.962-3.1,13.288,13.288,0,0,1,4.031-2.036,13.472,13.472,0,0,1,4.669-.649,12.468,12.468,0,0,1,8.876,3.73,14.238,14.238,0,0,1,3.781,8.963,9.068,9.068,0,0,1-.957,4.465c-1.031,1.969-2.95,3.585-4.132,5.681a8.617,8.617,0,0,0-.877,2.229,23.064,23.064,0,0,0-.51,4.265c-.54-.03-1.593.078-2.949.159Zm-.957,8.065a3.677,3.677,0,0,1-2.3.995,2.955,2.955,0,0,1-2.15-1.029c-.044-.049-.073-.1-.11-.144A8.239,8.239,0,0,0,28,47.932c-.032.029-.057.055-.09.084Z"/>
      <path id="Path_373" data-name="Path 373" d="M7.418,33.517c-1.084.771-1.871,1.578-1.678,1.925s1.349.06,2.5-.76,1.805-1.82,1.545-2.112-1.284.18-2.371.948Z"/>
      <path id="Path_374" data-name="Path 374" d="M5.953,23.613c1.321.141,2.44-.061,2.5-.451s-.991-.823-2.35-.968-2.478.057-2.5.451S4.632,23.472,5.953,23.613Z"/>
      <path id="Path_375" data-name="Path 375" d="M6.888,14.707c.774.546,1.552.845,1.826.558s-.134-1.109-1-1.722-1.779-.724-1.956-.375.359.989,1.131,1.539Z"/>
      <path id="Path_376" data-name="Path 376" d="M16.393,8.2c.322-.227.011-1.224-.7-2.227s-1.54-1.632-1.862-1.405-.011,1.224.7,2.227S16.071,8.423,16.393,8.2Z"/>
      <path id="Path_377" data-name="Path 377" d="M22.813,1.563a2.244,2.244,0,0,0-.713.058,2.235,2.235,0,0,0,.713.058,2.237,2.237,0,0,0,.714-.058A2.246,2.246,0,0,0,22.813,1.563Z"/>
      <path id="Path_378" data-name="Path 378" d="M25.686,4.137c.039-1.3-.112-2.4-.5-2.458S24.3,2.69,24.26,4.091s.377,2.5.766,2.467.616-1.12.66-2.421Z"/>
      <path id="Path_379" data-name="Path 379" d="M36.611,7.234c1.122-1.162,1.7-2.379,1.4-2.626s-1.351.521-2.427,1.636-1.806,2.189-1.544,2.487,1.452-.332,2.572-1.5Z"/>
      <path id="Path_380" data-name="Path 380" d="M40.687,15.7c.162.359,1.641.045,3.3-.7s2.881-1.645,2.72-2-1.641-.045-3.3.7-2.881,1.645-2.72,2Z"/>
      <path id="Path_381" data-name="Path 381" d="M43.184,25.159c-.089.378,1.052.965,2.578,1.008s2.7-.47,2.633-.853-1.219-.528-2.591-.573-2.532.029-2.62.419Z"/>
      <path id="Path_382" data-name="Path 382" d="M41.78,34.058c-.262.29.28,1.208,1.3,1.94s2.056.961,2.25.62-.469-1.092-1.414-1.777-1.867-1.078-2.132-.783Z"/>
      <path id="Path_383" data-name="Path 383" d="M35.076,20.7c.616,1.263.866,2.139,1.077,2.108.177-.019.287-.982-.134-2.468a10.361,10.361,0,0,0-8.8-7.317c-1.538-.143-2.464.139-2.451.317.007.213.915.3,2.269.675A12.209,12.209,0,0,1,35.076,20.7Z"/>
    </g>
  </g>
</svg>
