<svg xmlns="http://www.w3.org/2000/svg" xmlns:xlink="http://www.w3.org/1999/xlink" width="90" height="90" viewBox="0 0 90 90">
  <defs>
    <clipPath id="clip-path">
      <circle id="Ellipse_43" data-name="Ellipse 43" cx="45" cy="45" r="45" transform="translate(-529 1285)" fill="#fff"/>
    </clipPath>
  </defs>
  <g id="Training_and_Support" data-name="Training and Support" transform="translate(529 -1285)" clip-path="url(#clip-path)">
    <g id="_x38_8" transform="translate(-511.826 1303.376)">
      <path id="Path_384" data-name="Path 384" d="M46.451,40.089c-1.727-.39-1.354-.482-3.5-.971a2.161,2.161,0,0,0-2.389.956c-.12.225-.226.454-.336.682-2.444-.979-2.626-1.858-5.706-2.514-2.16-.462-2.183-.716-3.766-2.515a14.621,14.621,0,0,0,2.039-1.182.726.726,0,0,0,.318-.511c.652-1.1.2-1.223-.523-2.913.259-.3.4-.482.941-1.137l2,.458a.737.737,0,0,0,.857-.448c.372-.7,1.248-2.751,1.058-3.353-.114-1.234.3-.805-2.609-1.97a6.13,6.13,0,0,0,.081-1.326c1.225-.657,3.13-1.676,2.134-2.524a25.992,25.992,0,0,0-1.787-2.687.731.731,0,0,0-.786-.258c-.01,0-.02,0-.03,0a12.12,12.12,0,0,0-2.045.712l-.922-.926a8.888,8.888,0,0,0,.23-2.521.73.73,0,0,0-.431-.9c-.071-.027-.144-.049-.216-.075,1.393-.614,1.835-2.274-.393-3.637-.727-.445-2.073-1.339-2.844-1.825a21.727,21.727,0,0,0-2.175-1.213c2.919.062,2.768-.867,13.223,1.728a3.052,3.052,0,0,0,2.134.008A1.266,1.266,0,0,0,42.038,7.76c-.366-2.084-7.148-4.772-9.182-5.342C26.767.747,22.11,1.9,16.1,4.149c-.546.206-1.085.416-1.615.623l-.2.078a19.52,19.52,0,0,0-1.15-2.517.571.571,0,0,0-.6-.29c-.808.133-1.6.286-2.4.437s-1.579.3-2.381.435A.572.572,0,0,0,7.95,4.044c.812-.134,1.611-.287,2.41-.439.653-.125,1.306-.25,1.966-.364a17.844,17.844,0,0,1,2.027,8.849.793.793,0,0,1-.805.643c-2.17.179-1.839-.028-3.7.13A8.238,8.238,0,0,1,8.23,12.9c-.335-2.889-1.1-4.8-1.261-6.808a.58.58,0,0,0-.617-.524.572.572,0,0,0-.524.617c.14,1.734,1.015,4.544,1.281,7a.841.841,0,0,0,.251.533c.176.527.592.537,1.1.6a18.132,18.132,0,0,0,5.91-.177c.736-.149,1.166-.426,1.112-1.482,0-.093-.013-.187-.021-.28a3.428,3.428,0,0,0,.035-.851c1.374.141,2.634.848,3.843,1,2.1.262,3.918-.746,7.744,1.183A11.251,11.251,0,0,0,26.1,16.07a8.368,8.368,0,0,0-2.032.008l-1.159-1.89a.715.715,0,0,0-1.094-.165c-2.877,1.739-2.509,1.449-2.715,1.659a.359.359,0,0,0-.115.149.722.722,0,0,0-.063.676l.857,1.977L18.75,20.2l-2.477-.889a.727.727,0,0,0-.977.7c-.423,1.1-.683,2.2-1.056,3.108a.766.766,0,0,0,.15.783s.006.01.01.014a.718.718,0,0,0,.28.2l2.469.927.248,1.693A7.366,7.366,0,0,1,15.565,28.1c-1.416.277.092,2,.769,3.973a.735.735,0,0,0,.674.44h0a.724.724,0,0,0,.1.014.734.734,0,0,0,.287-.059l2.105-.9c.836.577.449.3,1.476,1L20.458,34.9a.72.72,0,0,0,.319,1.021c.562.261,3.305,1.12,3.976.682.109-.041.274-.112.508-.222A37.778,37.778,0,0,0,29.643,41.8a38.986,38.986,0,0,1-5.212-1.5c-4.438-1.445-7.631-4.7-8.656-5.035a1.392,1.392,0,0,0-1.811,1.725,3.31,3.31,0,0,0,.808,2.91c4.611,6.425,13.447,9.846,23.372,7.57-.245,2.091-.6,2.779.342,2.958,1.193.226,2.332.463,3.547.612a2.357,2.357,0,0,0,1.481-.445c.1.014.2.024.294.038a.573.573,0,1,0,.166-1.133c-1.458-.214-2.9-.362-4.365-.564a16.266,16.266,0,0,1,1.964-8.323,1.04,1.04,0,0,1,1.125-.379c.077.017,4.8,1.306,4.936,1.368a30.739,30.739,0,0,0-.971,3.524,18.983,18.983,0,0,1-.789,2.8.573.573,0,0,0,1.065.42,20.1,20.1,0,0,0,.84-2.966,28.554,28.554,0,0,1,1.01-3.611.819.819,0,0,0-.051-.682c-.287-.526-1.056-.723-2.287-1ZM16.508,5.22c5.782-2.163,10.2-3.3,16.042-1.7,2.45.686,8.16,3.3,8.36,4.437.014.082-.045.17-.211.16-.213,0-2.521-.765-2.6-.79-5.537-1.817-14.3-2.093-15.394-.443a.554.554,0,0,0,.155.763.547.547,0,0,0,.365.092,17.378,17.378,0,0,1,4.011,1.949c.932.588,1.9,1.247,2.835,1.819,1.8,1.1.805,1.968-.785,1.751-2.924-.392-3.139-2.689-7.511-2.267a8.368,8.368,0,0,1-1.819.047c-1.359-.155-2.95-.645-4.5-.751a18.861,18.861,0,0,0-.8-4.356l.242-.094c.527-.205,1.063-.414,1.6-.618Zm2.238,22.228c.311-.352.139-.47-.2-3.014-.116-.8-1.292-.811-2.693-1.455.288-.835.389-1.24.659-2.026L18.6,21.7c1.042.815,1.5-1.21,2.544-2.639a.716.716,0,0,0,.094-.348c.2-.483-.133-.708-.716-2.214l1.526-.908L22.911,17c.185,1.161,1.244.157,3.5.6a.88.88,0,0,0,.93-.609,12,12,0,0,1,.766-2.065,12.656,12.656,0,0,1,2.137.515c.047,1.889-.522,2.206-.166,2.76.1.36.207.3,1.613,1.763.55.551.975-.04,2.688-.532q.629.863,1.18,1.777a11.445,11.445,0,0,1-1.51.941.717.717,0,0,0-.658.877,4.971,4.971,0,0,1-.18,2.235.735.735,0,0,0,.523.9.7.7,0,0,0,.111.015A17.559,17.559,0,0,1,35.9,27.241a10.106,10.106,0,0,1-.6,1.641c-3.286-.472-1.341-1.307-4.242,1.738-.811.515.03,1.426.424,3.024a11.853,11.853,0,0,1-1.572.858,12.654,12.654,0,0,0-1.073-1.582c-.16-.678-.642-.58-3.3-.634-.755.02-.667.612-1.594,2.93a9.111,9.111,0,0,1-1.957-.414c.174-1.449,1.17-3.121-.032-3.342-2.615-1.82-1.8-1.809-4.543-.6l-.744-1.7a8.841,8.841,0,0,0,2.081-1.718Zm19.89,18.405c-2.728.113-4.015.208-7.174.1-12.926-.612-18.973-12.039-15.33-9.136,5.65,4.5,13.858,6.964,15.43,5.932a.57.57,0,0,0-.216-1.039.542.542,0,0,0-.075-.078c-1.555-1.085-5.129-5.507-5.071-6.165.049-.791,1.328-.676,2.075-.321,2.4,1.137,1.819,3.32,6.007,4.216,2.909.626,2.855,1.374,5.48,2.442a17.582,17.582,0,0,0-1.126,4.05Z" transform="translate(0 0)"/>
      <path id="Path_385" data-name="Path 385" d="M53.75,52.863c-.438-.121-.926.339-1,.834a1.209,1.209,0,1,0,1-.834Z" transform="translate(-11.102 -12.119)"/>
      <path id="Path_386" data-name="Path 386" d="M14.952,14.86c.467-.023.74-.61.638-1.089a1.161,1.161,0,0,0-1.674-.744,1,1,0,0,0-.472,1.476,1.115,1.115,0,0,0,1.508.357Z" transform="translate(-1.764 -2.668)"/>
      <path id="Path_387" data-name="Path 387" d="M32.254,35.167a5.043,5.043,0,0,0,3.427-4.882,4.84,4.84,0,0,0-8.45-3.115,4.879,4.879,0,0,0,5.023,8ZM28.3,28.182a3.375,3.375,0,0,1,5.915,2.16v0A3.425,3.425,0,0,1,27.9,32.328a3.527,3.527,0,0,1,.4-4.146Z" transform="translate(-4.758 -5.668)"/>
    </g>
  </g>
</svg>
