<svg xmlns="http://www.w3.org/2000/svg" width="60" height="60" viewBox="0 0 60 60">
  <g id="_2-Way_Ratings" data-name="2-Way Ratings" transform="translate(-6063 -2983)">
    <circle id="Ellipse_68" data-name="Ellipse 68" cx="30" cy="30" r="30" transform="translate(6063 2983)" fill="#37383a"/>
    <g id="_x35_5" transform="translate(6076.946 2993.715)">
      <path id="Path_440" data-name="Path 440" d="M26.647,20.922A40.035,40.035,0,0,0,29.624,18a2.051,2.051,0,0,0,.416-2.751,1.013,1.013,0,0,0-.95-.883l-1.581-.184c1.427-1.228,1.4-1.084,1.408-1.945a.663.663,0,0,0-.13-.646c-1.269-1.457-1.244-1.539-1.562-1.558a.551.551,0,0,0-.4.14c-1.085.976-3.8,3.205-4.095,3.45l-1.087-.128c-1.112-2.526-2.8-6.921-4.478-7.913-.387-.228-1.169-.644-1.63-.5a1.028,1.028,0,0,0-.169-.016,1.1,1.1,0,0,0-.978.647L10.831,13.43a.4.4,0,0,1-.281.222L2.17,15.1a1.114,1.114,0,0,0-.561,1.915l6.246,5.76a.4.4,0,0,1,.123.342L6.771,31.535c-.126.884.7,1.4,1.607,1.441,2.376.324,7.258.142,7.258-.265,0-.238-1.817-.432-4.059-.432-.4,0-.795.006-1.163.018.386-.209,4.389-2.554,6.1-3.646,7.629,3.687,7.3,3.73,7.86,3.7a1.6,1.6,0,0,0,1.7-.967,4.24,4.24,0,0,0-.017-2.5c-1.015-4.932-1.137-4.876-1.179-6.051a22.459,22.459,0,0,1,1.775-1.907Zm.527-10.09c.528.607.824.969,1.04,1.184-4.361,3.624-7.328,6.284-10.824,9.71-2-1.92-3.251-2.9-5.167-5.062.545-.515.986-.952,1.491-1.429,3.36,3.565,3.356,3.923,3.714,3.931.189,0,.188.005,1.321-1.121C20.3,16.5,25.8,12.06,27.174,10.832ZM16.508,27.84a1.113,1.113,0,0,0-1.032.03L8.062,32.031a.386.386,0,0,1-.572-.393L8.7,23.216a1.14,1.14,0,0,0-.347-.971L2.1,16.484a.387.387,0,0,1,.194-.665l8.386-1.452a1.126,1.126,0,0,0,.81-.635l3.554-7.721a.382.382,0,0,1,.69-.018l3.97,7.515a1.131,1.131,0,0,0,.853.588l1.405.166a48.017,48.017,0,0,0-4.052,3.587c-2.605-2.771-2.689-3.249-3.451-3.367a2.09,2.09,0,0,0-.892-.006.02.02,0,0,0-.015.017c-.279.074-.239.142-1.888,1.695a.652.652,0,0,0-.042.9c2.06,2.336,3.349,3.311,5.514,5.408.006.006.014.008.021.013a.376.376,0,0,0,.16.121.971.971,0,0,0,.949-.181c2.784-2.556,5.626-5.133,8.493-7.622l2.243.262a.385.385,0,0,1,.233.65l-5.926,6.1a1.119,1.119,0,0,0-.289.994l1.663,8.333a.386.386,0,0,1-.546.425Z" transform="translate(0)" fill="#fff"/>
    </g>
  </g>
</svg>
