<svg xmlns="http://www.w3.org/2000/svg" width="60" height="60" viewBox="0 0 60 60">
  <g id="Emergency_Assistance" data-name="Emergency Assistance" transform="translate(-6064 -2587)">
    <circle id="Ellipse_65" data-name="Ellipse 65" cx="30" cy="30" r="30" transform="translate(6064 2587)" fill="#37383a"/>
    <g id="Technical_Support" transform="translate(6075.399 2597.861)">
      <g id="Group_93533" data-name="Group 93533" transform="translate(3.966 4.957)">
        <path id="Path_432" data-name="Path 432" d="M32.885,34.707a.341.341,0,0,0,.053-.672L27.565,32.76a4.673,4.673,0,0,0,.237-1.8c-.105-1.2-.365-4.473-1.037-5.911a20.115,20.115,0,0,0,5.709,1.931.343.343,0,0,0,.12-.675,19.447,19.447,0,0,1-6.228-2.251.337.337,0,0,0-.308-.009,1.3,1.3,0,0,0-.966-.477c-.635.069-.755,1.022-.819,1.534a3.176,3.176,0,0,0-.067.533,11.013,11.013,0,0,0-3.744-.78l.318-.763c-.148-.357-.356-.846-.5-1.2.255-.354.488-.708.737-1.061.877.117,1.309.172,1.262.166.011,0,.089-.016.091-.017a.339.339,0,0,0,.248-.28s0,0,0,0a8.236,8.236,0,0,0,.583-2.246.342.342,0,0,0-.3-.381h-.009a14.114,14.114,0,0,0-1.879-.79,6.013,6.013,0,0,0,.052-.761c.5-.275,1.128-.687,1.581-.917a4.429,4.429,0,0,1,.019-1.193.332.332,0,0,0-.158-.43,19.556,19.556,0,0,0-1.532-1.906.34.34,0,0,0-.383-.082c-.008,0-.016,0-.024,0a8.924,8.924,0,0,0-1.582.735l-.486-.407c.034-.514.077-1.094.107-1.58l-.559-.894a.338.338,0,0,0-.241-.373,10.412,10.412,0,0,0-2.6-.388.32.32,0,0,0-.063.011.341.341,0,0,0-.327.211,10.034,10.034,0,0,0-.562,1.924,6.076,6.076,0,0,0-1.773.168l-1.087-1.459a.335.335,0,0,0-.539,0c-.974.719-2.013,1.451-1.91,1.426a.361.361,0,0,0-.031.376l.835,1.53-.777,1.622L6.88,15.347a.339.339,0,0,0-.418.4c-.249.873-.354,1.7-.59,2.47a.378.378,0,0,0,.253.452l2.041.56.36,1.488a5.78,5.78,0,0,1-1.408,1.3.34.34,0,0,0-.251.5l1.187,2.153a.33.33,0,0,0,.2.15,2.621,2.621,0,0,0,.823.514,16.627,16.627,0,0,1,2.034-.909q.26.14.512.283c-.006.046-.29,2.052-.3,2.1L5.849,24.96c-.776-.262-1.332-.191-1.659.214a1.112,1.112,0,0,0-.047,1.271c2.372,4.619,10.608,9.221,20.473,6.029a2.643,2.643,0,0,0,3.683,2.01c1.669.52,3.267,1.1,4.936,1.621l-.351-1.4Zm-5.759-3.618V31.1a6.565,6.565,0,0,1-.379,1.939,2.008,2.008,0,0,1-.827-1.675s0,0,0,0q.6-.135,1.206-.276ZM24.936,25.83c-.083-.32-.041-.193.016-.646a2.856,2.856,0,0,1,.212-.938c.218,0,.862.711,1.025,1.2.09.268.168.539.239.811a9.8,9.8,0,0,1-1.49-.38.32.32,0,0,0,0-.044Zm-17.3-3.34a6.474,6.474,0,0,0,1.553-1.5.343.343,0,0,0,.016-.379c-.446-1.743-.365-1.725-.511-1.866-.138-.182-.155-.09-2.08-.649.2-.774.266-1.241.463-1.988l1.855.48a.334.334,0,0,0,.52-.113c.661-1.426,1.124-2.124.943-2.453l-.741-1.357,1.4-1.027.9,1.212a.321.321,0,0,0,0,.047.343.343,0,0,0,.328.244,6.1,6.1,0,0,1,2.164-.214.447.447,0,0,0,.427-.346,9.333,9.333,0,0,1,.486-1.8,9.723,9.723,0,0,1,1.991.289,5.877,5.877,0,0,1-.031,1.868.728.728,0,0,0,.194.464c1.178.952,1.255,1.18,1.553,1.031a15.563,15.563,0,0,1,1.537-.722A18.889,18.889,0,0,1,21.86,15.26a8.841,8.841,0,0,1-1.269.98.337.337,0,0,0-.326.442,3.933,3.933,0,0,1,.028,1.8.338.338,0,0,0,.367.394,13.445,13.445,0,0,1,1.816.752,7.915,7.915,0,0,1-.435,1.643l-1.624-.218a.334.334,0,0,0-.383.319,11.21,11.21,0,0,0-1.063,1.434.338.338,0,0,0-.116.41l.648,1.465a6.274,6.274,0,0,1-1.916-.913c-.784-.513-1.462-1.416-2.287-1.718a3.551,3.551,0,0,0,2.808-3.9A3.425,3.425,0,0,0,11.914,16.5a3.577,3.577,0,0,0-.023,4.261,3.417,3.417,0,0,0,1.477,1.091A.813.813,0,0,0,13.01,22c-.711.586-.307,1.528.151,2.33a4.156,4.156,0,0,0,1.161,1.23c-.117.46-.161.632-.355,1.274a7.051,7.051,0,0,1-1.893-.23l.266-2.086a.334.334,0,0,0-.339-.38c-.566-.325-1-.536-1.512-.834a.338.338,0,0,0-.411-.074l-1.568.85Zm4.8-2.15a2.912,2.912,0,0,1,.018-3.423,2.757,2.757,0,0,1,4.974,1.324,2.9,2.9,0,0,1-1.7,2.977,2.858,2.858,0,0,1-3.294-.878Zm3.109,6.173a8.663,8.663,0,0,1,1.006.962c-.561.575-1.9.207-2.546.043a1.922,1.922,0,0,0,1.54-1.006ZM4.727,25.6c.155-.192.577-.1.9.009,7.994,2.513,8.642,2.682,8.642,2.682,1.629.456,2.731-.007,2.995-.689a.363.363,0,0,0-.029-.389,13.492,13.492,0,0,0-2.325-2.062c-1.084-.823-1.13-1.152-1.2-1.242-.171-.3-.624-1.092-.281-1.376a3.7,3.7,0,0,1,1.685.181c.937.485,1.13,1,2.1,1.628,2.458,1.6,3.354,1,5.177,1.444,1.233.3,3.754,1.352,4.195,1.108a28.616,28.616,0,0,1,.48,3.505,46.842,46.842,0,0,1-8.541,1.418c-6.793.253-13.311-4.444-13.826-5.8a.386.386,0,0,1,.029-.42Z" transform="translate(-3.966 -7.741)" fill="#fff"/>
        <path id="Path_433" data-name="Path 433" d="M57.874,54.254a1.056,1.056,0,0,0-.168,1.036,1.008,1.008,0,0,0,1.746.372,1.069,1.069,0,0,0,.266-1.016A1.1,1.1,0,0,0,57.874,54.254Z" transform="translate(-33.12 -31.542)" fill="#fff"/>
        <path id="Path_434" data-name="Path 434" d="M32.83,4.974a.343.343,0,0,0-.215.651,7.411,7.411,0,0,1,4.108,3.4.343.343,0,0,0,.6-.333A8.1,8.1,0,0,0,32.83,4.974Z" transform="translate(-19.399 -4.957)" fill="#fff"/>
        <path id="Path_435" data-name="Path 435" d="M43.59,9.72a.343.343,0,0,0,.633-.264,10.673,10.673,0,0,0-3.432-4.422.343.343,0,0,0-.412.547A9.987,9.987,0,0,1,43.59,9.72Z" transform="translate(-23.67 -4.961)" fill="#fff"/>
      </g>
    </g>
  </g>
</svg>
