<svg xmlns="http://www.w3.org/2000/svg" width="60" height="60" viewBox="0 0 60 60">
  <g id="Family_Member_Oversight" data-name="Family Member Oversight" transform="translate(-6064 -2843)">
    <circle id="Ellipse_67" data-name="Ellipse 67" cx="30" cy="30" r="30" transform="translate(6064 2843)" fill="#37383a"/>
    <g id="_x31_4" transform="translate(6075.695 2851.546)">
      <path id="Path_439" data-name="Path 439" d="M1.7,32.108c1.95-.07,3.9-.07,5.78-.139a.383.383,0,0,0,.348-.209c4.735-.139,7.381-.209,10.515-.348-3.134-.139-5.71-.209-10.376-.348a14.492,14.492,0,0,1,.418-2.507A10.645,10.645,0,0,1,14.37,22.29c.07,0,.139-.07.209-.139a.635.635,0,0,0,0-.836,5.529,5.529,0,0,1-1.532-2.785,5.351,5.351,0,0,1,.279-3.134,5.638,5.638,0,0,1,1.95-2.437,7.133,7.133,0,0,1,1.462-.7,5.936,5.936,0,0,1,1.6-.209,6.322,6.322,0,0,1,1.6.209,6.973,6.973,0,0,1,1.462.7,5.1,5.1,0,0,1,1.95,2.437,5.351,5.351,0,0,1,.279,3.134A5.529,5.529,0,0,1,22.1,21.315c-.07.07-.139.139-.139.209a.563.563,0,0,0,.348.766,9.76,9.76,0,0,1,4.6,3.621,8.661,8.661,0,0,1,1.323,2.507,11.107,11.107,0,0,1,.487,2.646c-1.6.07-3.273.07-4.874.139l-5.432.209,5.432.209c1.671.07,3.343.139,5.014.139a.383.383,0,0,0,.348.209c1.95.07,3.9.07,5.78.139a.624.624,0,0,0,.627-.627,9.844,9.844,0,0,0-1.671-5.153A9.208,9.208,0,0,0,30.6,23.334a4.855,4.855,0,0,0,1.045-2.716,5.31,5.31,0,0,0-.975-3.691,5.379,5.379,0,0,0-3.134-2.089,4.877,4.877,0,0,0-2.994.139A7.048,7.048,0,0,0,22.1,11.914a6.1,6.1,0,0,0-1.811-.836,6.291,6.291,0,0,0-1.95-.279,8.778,8.778,0,0,0-1.95.279,8.545,8.545,0,0,0-1.811.836,6.584,6.584,0,0,0-2.437,3.064,5.1,5.1,0,0,0-3.064-.139,5.379,5.379,0,0,0-3.134,2.089,5.31,5.31,0,0,0-.975,3.691,5.425,5.425,0,0,0,1.045,2.716,9.208,9.208,0,0,0-3.343,2.994A9.091,9.091,0,0,0,1,31.482a.74.74,0,0,0,.7.627ZM24.885,15.674a4.376,4.376,0,0,1,2.507.07,4.543,4.543,0,0,1,2.437,1.811,4.7,4.7,0,0,1,.7,2.925A4.394,4.394,0,0,1,29.2,23.056a.665.665,0,0,0,.209,1.114,8.266,8.266,0,0,1,3.621,2.925,8.942,8.942,0,0,1,1.462,3.691c-1.532,0-3.064.07-4.6.07a9.624,9.624,0,0,0-.7-2.785,12.8,12.8,0,0,0-1.323-2.785,11.418,11.418,0,0,0-4.178-3.76,6.694,6.694,0,0,0,1.184-5.849ZM3.855,27.095A8.779,8.779,0,0,1,7.476,24.17a.664.664,0,0,0,.209-1.114,4.212,4.212,0,0,1-1.323-2.577,4.472,4.472,0,0,1,.7-2.925A4.3,4.3,0,0,1,9.5,15.744,4.394,4.394,0,0,1,12,15.674a6.523,6.523,0,0,0,1.323,5.919,11.418,11.418,0,0,0-4.178,3.76A8.846,8.846,0,0,0,7.894,27.93a11.145,11.145,0,0,0-.766,2.994c-1.532-.07-3.064-.07-4.6-.07a7.209,7.209,0,0,1,1.323-3.76Z" transform="translate(0 0)" fill="#fff"/>
    </g>
  </g>
</svg>
