<svg xmlns="http://www.w3.org/2000/svg" width="60" height="60" viewBox="0 0 60 60">
  <g id="Features_Of_Yozoi_App" data-name="Features Of Yozoi App" transform="translate(-5977 -2290)">
    <circle id="Ellipse_61" data-name="Ellipse 61" cx="30" cy="30" r="30" transform="translate(5977 2290)" fill="#37383a"/>
    <g id="_x31_44" transform="translate(5983.25 2297.897)">
      <path id="Path_412" data-name="Path 412" d="M16.4,15.36a13.212,13.212,0,0,1,.054,3.893.336.336,0,0,0,.282.367c.2.307.406.666.59.89,7.05-.131,13.923-.163,20.972-.295.127-1.4.392-3.035.519-4.437-.291-.251-.668-.747-.9-.944,0,.007,0,.015,0,.022a194.9,194.9,0,0,0-21.2.07.351.351,0,0,0-.321.433Zm21,.149c-.077,1-.326,2.3-.4,3.315-6.638.121-13.129-.018-19.818.1a14.123,14.123,0,0,0-.021-3.321c6.717-.359,13.521-.391,20.239-.1Z" transform="translate(-3.857 -5.184)" fill="#fff"/>
      <path id="Path_416" data-name="Path 416" d="M16.473,39.837a.345.345,0,0,0,.078.143.337.337,0,0,0,.053.037c.224.328.467.763.679,1.022,7.049-.131,13.923-.163,20.972-.295.127-1.4.392-3.035.519-4.437a3.962,3.962,0,0,0-.755-.991c0,.02,0,.043-.005.064a.345.345,0,0,0-.221-.1,209.935,209.935,0,0,0-21.067.1.351.351,0,0,0-.321.433,16,16,0,0,1,.065,3.982h-.022c.008.01.018.026.026.037Zm20.933-3.871c-.076.993-.326,2.3-.4,3.316-6.549.119-13.249-.016-19.818.1a14.119,14.119,0,0,0-.021-3.321c6.716-.359,13.52-.392,20.239-.1Z" transform="translate(-3.857 -16.083)" fill="#fff"/>
      <path id="Path_417" data-name="Path 417" d="M38.727,57.232a5.177,5.177,0,0,0-.619-.857.347.347,0,0,0-.316-.253,210.206,210.206,0,0,0-21.067.1.351.351,0,0,0-.321.433,13.213,13.213,0,0,1,.054,3.893.344.344,0,0,0,.036.176H16.4c.262.319.574.919.836,1.239,7.049-.131,13.923-.163,20.972-.295.127-1.4.392-3.035.519-4.437Zm-1.72,2.89c-6.64.121-13.126-.018-19.818.1a14.123,14.123,0,0,0-.021-3.321c6.716-.359,13.52-.392,20.239-.1-.076.993-.326,2.3-.4,3.316Z" transform="translate(-3.857 -27.189)" fill="#fff"/>
    </g>
  </g>
</svg>
