<svg xmlns="http://www.w3.org/2000/svg" width="60" height="60" viewBox="0 0 60 60">
  <g id="Real_Time_Identity_Checks" data-name="Real Time Identity Checks" transform="translate(-6064 -2370)">
    <circle id="Ellipse_63" data-name="Ellipse 63" cx="30" cy="30" r="30" transform="translate(6064 2370)" fill="#37383a"/>
    <g id="_x36_" transform="translate(6078.381 2383.027)">
      <path id="Path_421" data-name="Path 421" d="M3.082,29.356a3.937,3.937,0,0,0,.816.117c17.842.058,9.329.058,11.72.058s-6.122.058,11.72-.058a3.441,3.441,0,0,0,.816-.117,2.893,2.893,0,0,0,1.982-2.507v-.7c0-1.283,0-1.982-.058-6.181,0-.117-.117-9.038-.117-8.921V10.7a1.138,1.138,0,0,0-.058-.408,2.481,2.481,0,0,0-1.982-2.1,3.325,3.325,0,0,0-.758-.058h-.7c-3.5.058-4.315.117-7.813.233,0-.466.058-.933.058-1.4l.058-1.05v-.35a1.649,1.649,0,0,0-.816-1.05,1.081,1.081,0,0,0-.408-.117H13.811a.843.843,0,0,0-.408.117,1.06,1.06,0,0,0-.641.583c-.058.117-.117.292-.175.408v.35l.058,1.05c0,.466.058.933.058,1.4C10.9,8.248,9.2,8.248,7.514,8.19c-.058,0-3.615-.058-3.44-.058a3.325,3.325,0,0,0-.758.058,2.624,2.624,0,0,0-1.982,2.1,1.138,1.138,0,0,1-.058.408v1.05C1.158,21.776,1.1,22.884,1.1,25.449v1.458a2.887,2.887,0,0,0,1.982,2.449Zm10.5-23.44V5.741c0-.058.117-.117.175-.175h3.732a.125.125,0,0,1,.117.117.057.057,0,0,0,.058.058v.175c0,.525.058,2.041.233,4.781a24.28,24.28,0,0,0-4.606,0c.233-2.74.233-4.315.292-4.781Zm-11.6,4.49A2.059,2.059,0,0,1,3.491,8.715,8.734,8.734,0,0,1,4.773,8.6c3.5-.058,4.315-.117,7.813-.233.058.816.058,1.574.117,2.391a14.045,14.045,0,0,0-2.157.408,18.93,18.93,0,0,0,2.507.466,24.582,24.582,0,0,0,5.073,0,12.637,12.637,0,0,0,2.507-.466,9.381,9.381,0,0,0-2.157-.408c.058-.816.117-1.574.117-2.391,3.557.117,4.256.117,7.813.233a4.373,4.373,0,0,1,1.283.117A2.135,2.135,0,0,1,29.2,10.406v.641c-.058,3.265-.058,5.656-.117,8.921-.058,4.2-.058,4.956-.058,6.181v.641a1.681,1.681,0,0,1-1.166,1.574,1.614,1.614,0,0,1-.525.058c-17.784-.058-9.271-.058-11.662-.058s6.122,0-11.662.058c-.175,0-.35-.058-.525-.058A1.783,1.783,0,0,1,2.15,26.79v-.641c0-1.108,0-2.566-.058-6.181,0-.175-.117-9.038-.117-8.921V10.7a.26.26,0,0,1,0-.292Z" fill="#fff"/>
      <path id="Path_422" data-name="Path 422" d="M34.58,24.939a12.638,12.638,0,0,0,2.507-.466,18.93,18.93,0,0,0-2.507-.466,24.582,24.582,0,0,0-5.073,0A12.637,12.637,0,0,0,27,24.473a18.931,18.931,0,0,0,2.507.466A24.568,24.568,0,0,0,34.58,24.939Z" transform="translate(-10.798 -8.12)" fill="#fff"/>
      <path id="Path_423" data-name="Path 423" d="M33.239,29.983a7.878,7.878,0,0,0-3.09-.583,14.3,14.3,0,0,0-1.574.117A8.057,8.057,0,0,0,27,29.983,8.842,8.842,0,0,0,33.239,29.983Z" transform="translate(-10.798 -10.423)" fill="#fff"/>
      <path id="Path_424" data-name="Path 424" d="M33.589,35.839a10.015,10.015,0,0,0,2.216-.466,15,15,0,0,0-2.216-.466,18.285,18.285,0,0,0-4.373,0A10.015,10.015,0,0,0,27,35.373a15,15,0,0,0,2.216.466A18.279,18.279,0,0,0,33.589,35.839Z" transform="translate(-10.798 -12.664)" fill="#fff"/>
      <path id="Path_425" data-name="Path 425" d="M7.1,31.219a.312.312,0,0,0,.292.292c1.341-.058,2.74-.175,4.082-.292-1.224-.117-2.507-.233-3.732-.292a4,4,0,0,1,.7-1.691,3.751,3.751,0,0,1,1.691-1.283.5.5,0,0,0,.175-.816A1.8,1.8,0,0,1,9.9,25.214a1.651,1.651,0,0,1,1.633-1.05,1.757,1.757,0,0,1,1.633,1.108,1.7,1.7,0,0,1-.408,1.924c-.058.058-.117.117-.117.175a.472.472,0,0,0,.292.641A3.506,3.506,0,0,1,14.563,29.3a4.34,4.34,0,0,1,.7,1.691c-1.224.058-2.507.175-3.732.292,1.341.175,2.74.233,4.082.292a.275.275,0,0,0,.292-.292v-.058a4.4,4.4,0,0,0-.641-2.449,4.02,4.02,0,0,0-1.4-1.4A2.809,2.809,0,0,0,11.473,23a2.937,2.937,0,0,0-2.682,1.808,2.666,2.666,0,0,0,.292,2.566,4.576,4.576,0,0,0-1.4,1.4A4.62,4.62,0,0,0,7.1,31.219Z" transform="translate(-2.502 -7.753)" fill="#fff"/>
    </g>
  </g>
</svg>
