<svg xmlns="http://www.w3.org/2000/svg" width="60" height="60" viewBox="0 0 60 60">
  <g id="Security_Clearance" data-name="Security Clearance" transform="translate(-6064 -2290)">
    <circle id="Ellipse_62" data-name="Ellipse 62" cx="30" cy="30" r="30" transform="translate(6064 2290)" fill="#37383a"/>
    <g id="_x36_6" transform="translate(6076.425 2302.814)">
      <path id="Path_418" data-name="Path 418" d="M25.41,31.348a.685.685,0,0,0,.57.225c.327-.05.513-.389.655-.688a33.593,33.593,0,0,1,6.15-8.89.449.449,0,0,0-.082-.6.641.641,0,0,0-.605-.091c-1.434.449-5.077,5.281-5.832,6.165-.811-.515-2.363-.676-3.182-1.177a1.785,1.785,0,0,0-.474-.229.6.6,0,0,0-.506.072c-.141.1-.238.392-.113.516a22.708,22.708,0,0,1,3.42,4.692Z" transform="translate(-9.028 -8.846)" fill="#fff"/>
      <path id="Path_419" data-name="Path 419" d="M21.676,33.2a.339.339,0,0,0,.2.005,11.967,11.967,0,0,0,6.5-5.017c2.982-4.568,3.167-10.513,2.594-15.938a.339.339,0,0,0-.292-.3c-9.744-1.295-9.124-1.229-9.214-1.215-1.846.281-8.542,1.307-8.707,1.323a.338.338,0,0,0-.337.316,47.912,47.912,0,0,0-.064,8.309C13.008,26.7,15.883,31.21,21.676,33.2Zm-8.6-20.5,8.443-1.288,8.806,1.174c.525,5.2.316,10.9-2.514,15.232A11.318,11.318,0,0,1,21.8,32.528c-5.455-1.922-8.144-6.164-8.768-11.915a45.8,45.8,0,0,1,.048-7.911Z" transform="translate(-3.682 -3.059)" fill="#fff"/>
      <path id="Path_420" data-name="Path 420" d="M29.407,16.981a44.339,44.339,0,0,0-.064-10.02.339.339,0,0,0-.292-.3C17.1,5.072,17.826,5.152,17.736,5.166,6.174,6.927,6.909,6.8,6.832,6.852c0-.022,0-.043,0-.065-.035.037-.281.142-.312.183a3.383,3.383,0,0,1-.358.326c-.256.255-.238.522-.322,1.309a54.1,54.1,0,0,0-.353,5.5c-.037,8.674,3.444,16.472,11.8,18.986,1.639.493,3.14-.684,4.559-1.645a16.657,16.657,0,0,0,4.321-4.267c2.077-2.984,2.8-6.494,3.234-10.2ZM7.33,7.438l10.46-1.6L28.7,7.3c.655,6.431.407,13.482-3.1,18.853a14,14,0,0,1-7.466,5.831C11.376,29.612,8.04,24.364,7.267,17.248a56.737,56.737,0,0,1,.063-9.81Z" transform="translate(0 0)" fill="#fff"/>
    </g>
  </g>
</svg>
