<svg xmlns="http://www.w3.org/2000/svg" width="60" height="60" viewBox="0 0 60 60">
  <g id="Support" transform="translate(-6064 -2482)">
    <circle id="Ellipse_64" data-name="Ellipse 64" cx="30" cy="30" r="30" transform="translate(6064 2482)" fill="#37383a"/>
    <g id="_x33_3" transform="translate(6077.248 2496.931)">
      <path id="Path_426" data-name="Path 426" d="M51.136,3.31c-.764-.919-1.839-.9-3.045-.9-.9,0-1.306-.015-3.895-.032-1.03-.008-2.313-.022-3.057.925a3.905,3.905,0,0,0-.694,1.816,7.477,7.477,0,0,0,.408,4.36,2.569,2.569,0,0,0,1.92,1.224q.273.886.543,1.769a.459.459,0,0,0,.8.153c.727-.132.631-.189,1.354-1.542,1.184-.014,2.513-.044,3.645-.052a3.561,3.561,0,0,0,2.233-.517,3.051,3.051,0,0,0,.923-2.1c.181-1.554.085-4.049-1.135-5.106Zm-7.95,6.754a.75.75,0,0,0-.149-.037,1.861,1.861,0,0,1-1.582-.9,6.943,6.943,0,0,1-.322-3.9c.318-1.957,1.111-2.175,3.056-2.155.727,0,3.892.03,4.1.031a2.973,2.973,0,0,1,2.233.546,3.782,3.782,0,0,1,.683,2.577c.034,1.138.15,2.535-.692,3.34-.663.634-2.011.455-2.978.455-2.411.011-2.439-.049-2.59.109a8.3,8.3,0,0,0-1.134,1.579c-.448-1.467-.443-1.565-.627-1.652Z" transform="translate(-20.626)" fill="#fff"/>
      <path id="Path_427" data-name="Path 427" d="M46.029,9.768h-.195a.348.348,0,1,0,0,.7h.195a.348.348,0,0,0,0-.7Z" transform="translate(-23.398 -3.956)" fill="#fff"/>
      <path id="Path_428" data-name="Path 428" d="M52.8,10.889a.347.347,0,0,0,.242-.1l.044-.043-.507-.478.222.271-.242-.251a.349.349,0,0,0,.242.6Z" transform="translate(-27.128 -4.224)" fill="#fff"/>
      <path id="Path_429" data-name="Path 429" d="M2.212,52.87l.434.921c5.1.418,12.351.469,17.947.423.7-.006,1.75-.595,1.836-1.269a.561.561,0,0,0,.042-.348,9.853,9.853,0,0,0-11.1-8.138A12.542,12.542,0,0,0,1.822,52.2a.5.5,0,0,0,.39.671Zm13.506-7.308a1.848,1.848,0,0,1-.981,1.362,4.744,4.744,0,0,1-3.787.058,2.04,2.04,0,0,1-1.122-1.37.325.325,0,0,0-.015-.037,8.363,8.363,0,0,1,5.9-.013ZM7.29,46.7a9.9,9.9,0,0,1,1.87-.9c.527,2.446,4.262,2.661,5.919,1.728a2.6,2.6,0,0,0,1.3-1.714,8.242,8.242,0,0,1,2.575,1.663,9.149,9.149,0,0,1,2.8,5.1c-.224.007-.423.032-.644.041a140.648,140.648,0,0,1-18.537-.406A12.241,12.241,0,0,1,7.29,46.7Z" transform="translate(0 -22.471)" fill="#fff"/>
      <path id="Path_430" data-name="Path 430" d="M7.989,16.537a2.648,2.648,0,0,0,3.246,2.311,5.741,5.741,0,0,0,3.392,4.011,4.194,4.194,0,0,0,4.044-.3,4.308,4.308,0,0,0,1.678-2.126A5.006,5.006,0,0,0,22.7,18.465a2.927,2.927,0,0,0,1.619-1.924,3.069,3.069,0,0,0-1.5-3.774,5.81,5.81,0,0,0-1.35-4.339C17.433,3.678,8.74,7.473,9.326,13.1a3.115,3.115,0,0,0-1.337,3.441Zm12.7-1.171c-.172.113-.2.111-.39-.012a3.182,3.182,0,0,1-.852-1.238,1.088,1.088,0,0,0-.413-.588.931.931,0,0,0-1.088.162c-.236.207-.327.4-.5.564-.284.276-.727.544-1.044.391a1.2,1.2,0,0,1-.5-.672.782.782,0,0,0-1.222-.35c-1.548,1.212-1.746,1.431-2.049,1.463a1.263,1.263,0,0,1-.916-.2c-.229-.294-.374-1.161-.5-1.313a3.737,3.737,0,0,1,1.061-3.064,2.2,2.2,0,0,1,2.256-.475.347.347,0,0,0,.4-.09A3.645,3.645,0,0,1,18.68,9c2.477.911,3.224,4.216,2.012,6.37ZM12.768,20.53a8.606,8.606,0,0,1-1.256-4.869.34.34,0,0,0,.02-.062,2.377,2.377,0,0,0,1.174.18,2.018,2.018,0,0,0,1.007-.5c1.429-1.1,1.392-1.148,1.48-1.121a.079.079,0,0,1,.054.05c.539,1.532,1.94,1.519,2.941.259a1.973,1.973,0,0,1,.222-.251.3.3,0,0,1,.26-.094c.063.04.123.241.186.384a3.707,3.707,0,0,0,1.077,1.442,1.355,1.355,0,0,0,.394.172,10.957,10.957,0,0,1-.766,3.842,5.458,5.458,0,0,1-1.781.124.935.935,0,0,0-.882-.652c-.448,0-1.179.467-1.16,1,.019.518.688.821,1.2.821a.933.933,0,0,0,.765-.47,5.978,5.978,0,0,0,1.427-.037,3.891,3.891,0,0,1-2.06,1.6,4.151,4.151,0,0,1-4.3-1.821Zm7.85-1c.06-.315.1-.638.127-.962a2.587,2.587,0,0,0,.792.125c.038,0,.076-.006.114-.008a4.212,4.212,0,0,1-1.033.845Zm2.9-5.168a2.288,2.288,0,0,1,.187.512,2.68,2.68,0,0,0-.426,2.245,2.325,2.325,0,0,1-.553.55,2.261,2.261,0,0,1-1.85.217c-.009,0-.019,0-.028-.005.089-.6.138-1.187.175-1.739a5.138,5.138,0,0,0,.922-2.926,2.205,2.205,0,0,1,1.574,1.147ZM17.4,7a5.262,5.262,0,0,1,4.746,5.537q-.112-.021-.224-.031a6.636,6.636,0,0,0-.1-.709,4.747,4.747,0,0,0-2.9-3.459,4.345,4.345,0,0,0-4.35.969c-1.761-.529-3.772.815-4.034,3.392A2.6,2.6,0,0,0,10,12.8C9.833,9.21,13.958,6.578,17.4,7Zm-6.888,6.4a9.373,9.373,0,0,0,.311,2.118,13.04,13.04,0,0,0,.248,2.654A1.817,1.817,0,0,1,9,17.284a2.928,2.928,0,0,0,.007-2.065,1.585,1.585,0,0,0-.233-.45A2.2,2.2,0,0,1,10.509,13.4Z" transform="translate(-3.274 -2.084)" fill="#fff"/>
      <path id="Path_431" data-name="Path 431" d="M58.812,10.643l.194-.037a.348.348,0,1,0-.13-.684l-.194.037a.348.348,0,1,0,.13.684Z" transform="translate(-30.312 -4.035)" fill="#fff"/>
    </g>
  </g>
</svg>
