<svg xmlns="http://www.w3.org/2000/svg" width="60" height="60" viewBox="0 0 60 60">
  <g id="Yozoi_Community_Support" data-name="Yozoi Community Support" transform="translate(-6064 -2701)">
    <circle id="Ellipse_66" data-name="Ellipse 66" cx="30" cy="30" r="30" transform="translate(6064 2701)" fill="#37383a"/>
    <g id="human-resources" transform="translate(6074.165 2710.498)">
      <path id="Path_436" data-name="Path 436" d="M4.648,40.287a9.3,9.3,0,0,0,1.895-.178c.14-.014.289-.028.443-.04.155.172.323.136.487-.024a7.481,7.481,0,0,1,1.236.063,12.508,12.508,0,0,1,2.733.9,35.414,35.414,0,0,0,3.4,1.24,9.484,9.484,0,0,0,4.242.353,8.606,8.606,0,0,0,1.133-.266c.363-.139.751-.274,1.089-.434,2.191-.979,4.34-2.132,6.433-3.307.7-.418,1.441-.736,2.182-1.1s1.46-.727,2.158-1.129a11.838,11.838,0,0,0,1.977-1.383,3.659,3.659,0,0,0,.8-.993,1.849,1.849,0,0,0,.21-.694,1.524,1.524,0,0,0-.146-.751,1.934,1.934,0,0,0-.992-.911,2.879,2.879,0,0,0-1.185-.244,5.515,5.515,0,0,0-2.084.488c-.616.254-1.174.542-1.705.786s-1.071.445-1.572.655c-2.018.829-3.644,1.509-4.768,2.011A1.7,1.7,0,0,0,22,33.907a4.431,4.431,0,0,0-3.136-.755c-1.959.154-3.67-.652-5.409-1.149a9.12,9.12,0,0,0-4.8-.165,16.646,16.646,0,0,0-3.029,1c-.686.3-1.048.5-1.026.562s.43-.023,1.147-.213A28.21,28.21,0,0,1,8.78,32.5a9.073,9.073,0,0,1,4.424.343,24.154,24.154,0,0,0,4.112,1.2,9.484,9.484,0,0,0,1.569.059,7.942,7.942,0,0,1,1.409.051c.729.12,1.559.542,1.395,1.263a1.313,1.313,0,0,1-.334.595,2.066,2.066,0,0,0-.334.273,4.1,4.1,0,0,1-2.049.509,16.373,16.373,0,0,1-2.117-.084c-1.3-.137-2.352-.344-3.086-.46s-1.147-.164-1.163-.1.366.226,1.076.458a22.283,22.283,0,0,0,3.084.766,14.776,14.776,0,0,0,2.216.206,4.6,4.6,0,0,0,2.632-.63,2.359,2.359,0,0,0,.911-1.2c.071-.025.137-.05.213-.076,1.155-.393,2.831-.983,4.887-1.734.517-.194,1.046-.37,1.624-.61a9.522,9.522,0,0,1,3.483-1.11,1.574,1.574,0,0,1,1.4.693c.215.367-.159.935-.684,1.394a24.29,24.29,0,0,1-4.983,2.834.946.946,0,0,0-.087-.13.694.694,0,0,0-.7-.251c-.237.072-.31.473-.051.819-.118.064-.239.119-.355.187-1.454.816-2.878,1.6-4.274,2.3-.5.252-.984.483-1.473.715a1.246,1.246,0,0,0-.165-.468.857.857,0,0,0-.637-.464c-.26-.011-.467.476-.172.96a.955.955,0,0,0,.289.3c-.312.145-.607.253-.905.375-.272.074-.539.154-.809.21-.011-.019-.021-.036-.032-.056a3.27,3.27,0,0,1-.313-.866c-.165-.828-.488-1.579-.75-1.519s-.366.779-.172,1.746a1.926,1.926,0,0,0,.413.824,9.548,9.548,0,0,1-3.225-.338c-1.592-.41-2.985-1.015-4.74-1.574a1.46,1.46,0,0,0,.609-.971c.157-.685-.059-1.257-.318-1.253s-.476.476-.607,1.041a1.822,1.822,0,0,0-.013,1.087,6.3,6.3,0,0,0-.831-.181.772.772,0,0,0,.295-.545c.055-.489-.268-.82-.514-.737a.724.724,0,0,0-.429.629.829.829,0,0,0,.149.6,7.279,7.279,0,0,0-.924,0,1.387,1.387,0,0,0,.043-.16c.069-.459-.085-.863-.344-.9s-.525.3-.594.761a1.32,1.32,0,0,0,0,.4c-.117.02-.235.04-.342.061a6.179,6.179,0,0,0-1.839.543Z" transform="translate(0 -8.297)" fill="#fff"/>
      <path id="Path_437" data-name="Path 437" d="M23.779,23.836a3.241,3.241,0,0,0,.056.908,1.67,1.67,0,0,0,.556.941,3.1,3.1,0,0,0,1.881.541c1.914.011,5.173.04,9.651,0a2.028,2.028,0,0,0,.96-.211,1.669,1.669,0,0,0,.751-.695,2.123,2.123,0,0,0,.247-.91,4.353,4.353,0,0,0-.247-1.577,6.777,6.777,0,0,0-1.328-2.4,7.394,7.394,0,0,0-3.24-2.131,2.665,2.665,0,0,0-1.4-.216,8.648,8.648,0,0,0,1.263.56,7.9,7.9,0,0,1,2.859,2.215c.068.084.128.178.192.269a2.064,2.064,0,0,0-.348,0c-.413.045-.787.19-.838.45s.366.553.935.495a1.166,1.166,0,0,0,.66-.269,7.34,7.34,0,0,1,.42,1.041,4.064,4.064,0,0,0-1.08.031c-.628.078-1.187.146-1.258.4s.535.637,1.366.541a1.755,1.755,0,0,0,1.11-.508c.185.772.185,1.673-.445,1.908a1.149,1.149,0,0,1-.594.108c-4.237-.041-6.554-.037-9.609-.038a2.336,2.336,0,0,1-1.333-.311,1.313,1.313,0,0,1-.314-1.131,5.881,5.881,0,0,1,2.276-4.534,5.992,5.992,0,0,1,3.358-1.174,8.955,8.955,0,0,1,1.012-.01c.485,0,.49-.065.027-.189a4.472,4.472,0,0,0-1.037-.17,5.9,5.9,0,0,0-3.752,1,6.46,6.46,0,0,0-2.758,5.06Z" transform="translate(-6.416 -3.738)" fill="#fff"/>
      <path id="Path_438" data-name="Path 438" d="M32.3,13.441a3.692,3.692,0,0,0,2.228-.367,3.608,3.608,0,0,0,1.429-1.557,3.648,3.648,0,0,0-.208-3.4,3.016,3.016,0,0,0-1.818-1.36,1.721,1.721,0,0,0-.608-.059c-.277.016-.282.081-.028.189a3.777,3.777,0,0,1,.513.218,2.981,2.981,0,0,1,1.356,1.34,3.052,3.052,0,0,1,.007,2.686,2.832,2.832,0,0,1-1.086,1.121,2.867,2.867,0,0,1-1.67.242,3.179,3.179,0,0,1-1.6-.6,2.258,2.258,0,0,1-.748-1.321,3.243,3.243,0,0,1,.64-2.636,3.132,3.132,0,0,1,1.648-.978c.468-.106.752-.123.757-.2.005-.054-.269-.167-.8-.168a3.125,3.125,0,0,0-2.091.885,3.815,3.815,0,0,0-1.013,3.245A3.082,3.082,0,0,0,30.22,12.61a3.968,3.968,0,0,0,2.085.831Z" transform="translate(-8.223)" fill="#fff"/>
    </g>
  </g>
</svg>
